PathFileType	4	(X/Y/Z)	./resultDataOpenSim/trcMotMarkerGrf/sub10/qtm-12-06.trc
DataRate	CameraRate	NumFrames	NumMarkers	Units	OrigDataRate	OrigDataStartFrame	OrigNumFrames
250.000000	250.000000	12	24	m	250.000000	182	483
Frame#	Time	L.Toe.Tip			R.Toe.Tip			L.Ankle.Lat			R.Ankle.Lat			L.Ankle.Med			R.Ankle.Med			L.Heel			R.Heel			L.Knee.Lat			R.Knee.Lat			L.Knee.Med			R.Knee.Med			L.Thigh.Upper			R.Thigh.Upper			L.ASIS			R.ASIS			V.Sacral			L.Acromium			R.Acromium			C7			L.Elbow			R.Elbow			L.Wrist.Lat			R.Wrist.Lat
		X1	Y1	Z1	X2	Y2	Z2	X3	Y3	Z3	X4	Y4	Z4	X5	Y5	Z5	X6	Y6	Z6	X7	Y7	Z7	X8	Y8	Z8	X9	Y9	Z9	X10	Y10	Z10	X11	Y11	Z11	X12	Y12	Z12	X13	Y13	Z13	X14	Y14	Z14	X15	Y15	Z15	X16	Y16	Z16	X17	Y17	Z17	X18	Y18	Z18	X19	Y19	Z19	X20	Y20	Z20	X21	Y21	Z21	X22	Y22	Z22	X23	Y23	Z23	X24	Y24	Z24

182	0.724	-0.027596622	0.017767648	-0.12058945	-0.71997785	0.055384131	0.040016708	-0.16217847	0.042124666	-0.14577179	-0.73794709	0.19659989	0.077189613	-0.1515935	0.06495858	-0.060704974	-0.69784339	0.17713907	0.0008583026	-0.22830037	0.011568638	-0.10300511	-0.77301977	0.22924515	0.023221021	-0.11272558	0.42762237	-0.17635306	-0.40368587	0.38509526	0.10477179	-0.099512014	0.40951644	-0.056087178	-0.35433114	0.35665097	-0.015386116	-0.24810048	0.79019693	-0.23474602	-0.35350952	0.77540713	0.14087944	-0.22500456	0.89645216	-0.15153223	-0.26110779	0.8737111	0.080482722	-0.43981808	0.89150619	-0.066823705	-0.32465491	1.3436699	-0.21133372	-0.34266881	1.3482399	0.11698395	-0.42099719	1.3717756	-0.05615225	-0.46741649	1.034059	-0.23011044	-0.35832586	0.98711755	0.16749416	-0.41279444	0.79723081	-0.282861	-0.12195042	0.90242358	0.18827989
183	0.728	-0.027250479	0.017576702	-0.12043158	-0.71081653	0.059261347	0.040775036	-0.16172918	0.042093271	-0.1454362	-0.7260665	0.20127329	0.077092321	-0.15119528	0.064621672	-0.060218978	-0.68646012	0.18086223	0.00087158086	-0.22814862	0.011698928	-0.10267144	-0.76055355	0.23439387	0.022858074	-0.10877425	0.42682222	-0.1758056	-0.39035418	0.38365655	0.1061269	-0.096232304	0.40843753	-0.055441964	-0.33938029	0.35445311	-0.014567406	-0.24255153	0.79016083	-0.23570111	-0.34561715	0.77434461	0.1395728	-0.21938293	0.89681194	-0.15248424	-0.25473469	0.87350393	0.079491835	-0.43448052	0.89158483	-0.066495038	-0.31748647	1.3435027	-0.21202477	-0.33634474	1.3481203	0.11610909	-0.41436749	1.3715937	-0.057089017	-0.45976049	1.0335143	-0.23087811	-0.35384322	0.98716831	0.16618055	-0.40462486	0.79706177	-0.28385911	-0.11811126	0.90122445	0.18899372
184	0.732	-0.026933713	0.017415238	-0.12029878	-0.70056094	0.063314804	0.041784871	-0.16131777	0.042039031	-0.14513729	-0.71394523	0.20607106	0.076840678	-0.15082099	0.064288495	-0.059744814	-0.67489049	0.18475822	0.0007536371	-0.22802363	0.011816056	-0.10237213	-0.74823845	0.23917467	0.022399414	-0.10483951	0.42597604	-0.17518155	-0.37702008	0.38233577	0.10750142	-0.093045685	0.40738543	-0.054685248	-0.32456997	0.3527647	-0.013898872	-0.23697461	0.79013452	-0.2366231	-0.33776596	0.77343693	0.13817738	-0.21379525	0.89709397	-0.15347394	-0.24847715	0.87334339	0.078609919	-0.42941447	0.89159065	-0.066170381	-0.31023422	1.3433202	-0.21270036	-0.3300541	1.3479593	0.11529743	-0.40775574	1.371444	-0.058015344	-0.4522068	1.0330117	-0.2316122	-0.34918261	0.98700672	0.16466466	-0.39621753	0.79708798	-0.28519053	-0.114283	0.89989336	0.18977995
185	0.736	-0.026664283	0.017274622	-0.12020262	-0.68926364	0.06746214	0.043004103	-0.16093341	0.041973249	-0.14487915	-0.70158299	0.2109877	0.076440189	-0.15049007	0.063961417	-0.059315924	-0.66309447	0.18885447	0.00050003536	-0.22793309	0.011914602	-0.10212581	-0.73596699	0.2436173	0.021761072	-0.10085055	0.42508694	-0.17453867	-0.36370221	0.38119848	0.10877525	-0.090021404	0.40632801	-0.053913044	-0.30995855	0.35163277	-0.013407757	-0.23141743	0.79012695	-0.23751819	-0.33023585	0.77268324	0.13703099	-0.20821639	0.89731301	-0.15448854	-0.24231319	0.87325761	0.077812421	-0.42461037	0.891496	-0.065802106	-0.30293006	1.3431285	-0.21335564	-0.32381618	1.3477634	0.1145323	-0.4011462	1.3713371	-0.058923406	-0.44474235	1.0325771	-0.2323653	-0.34436965	0.98667407	0.16302823	-0.38761314	0.79730847	-0.28679769	-0.11048206	0.89844217	0.1906334
186	0.74	-0.026445815	0.017149056	-0.12013845	-0.6769709	0.071671665	0.044422084	-0.16054833	0.041920287	-0.14465801	-0.68901645	0.21596473	0.075882173	-0.15021359	0.063648436	-0.058959352	-0.65097089	0.19307744	0.00012838221	-0.22787602	0.01199346	-0.10193322	-0.72360344	0.24776596	0.020919451	-0.09679098	0.42414925	-0.17390916	-0.35040239	0.38030548	0.10985489	-0.087323507	0.40521448	-0.053261674	-0.29557441	0.3510444	-0.013100566	-0.22591578	0.7901479	-0.23837772	-0.32301862	0.77206003	0.13617047	-0.20263503	0.89747943	-0.15552488	-0.23624095	0.8732631	0.077083362	-0.42006162	0.89127185	-0.065341477	-0.29557911	1.3429428	-0.21398669	-0.31762941	1.3475533	0.11380593	-0.39452436	1.3712895	-0.059828633	-0.43745403	1.0322256	-0.23308106	-0.33952183	0.98632024	0.1615588	-0.37894257	0.79757753	-0.2884055	-0.10672329	0.89688355	0.19155193
187	0.744	-0.026266463	0.017036518	-0.12009364	-0.66373553	0.075901166	0.046050604	-0.16015803	0.041887734	-0.144474	-0.67626158	0.22084241	0.075179426	-0.14999021	0.063362546	-0.058677371	-0.63843497	0.19723932	-0.00033177484	-0.22784568	0.012055865	-0.10178645	-0.71101209	0.25165881	0.019915215	-0.092710066	0.42314916	-0.17330284	-0.337104	0.37968915	0.11072509	-0.084986269	0.40403451	-0.052787463	-0.28139637	0.35094581	-0.012956608	-0.22048513	0.7902019	-0.239192	-0.31597009	0.77154731	0.13548289	-0.19705433	0.89759657	-0.15657974	-0.23026442	0.87336314	0.076417894	-0.41573518	0.89091136	-0.064763793	-0.28817519	1.3427761	-0.21458774	-0.3114562	1.3473501	0.11313432	-0.38787499	1.371323	-0.060779947	-0.43053466	1.0319783	-0.23366877	-0.33475637	0.98608163	0.16049765	-0.37030124	0.79772206	-0.28975768	-0.10301386	0.89522889	0.19254103
188	0.748	-0.026109096	0.016935427	-0.12006048	-0.64966626	0.080041199	0.047877832	-0.15978901	0.041855301	-0.14432979	-0.66327477	0.22539168	0.074372196	-0.14980549	0.063115277	-0.058450599	-0.62548988	0.20111618	-0.00086010796	-0.22783307	0.012107501	-0.10167573	-0.69808877	0.25530391	0.018816748	-0.088679928	0.42208265	-0.17272684	-0.32378245	0.37936485	0.11141155	-0.082815115	0.40284485	-0.052418857	-0.26737167	0.35126447	-0.012929886	-0.21512339	0.79028209	-0.23995602	-0.30898588	0.77112322	0.13489194	-0.19147809	0.89766207	-0.15763994	-0.22437626	0.87354946	0.075819688	-0.41152441	0.89047247	-0.06411762	-0.28072149	1.3426363	-0.21514981	-0.30526037	1.3471611	0.11254073	-0.38119444	1.3714564	-0.061808721	-0.42424244	1.0318634	-0.23403412	-0.33009828	0.98599408	0.15984512	-0.3616855	0.79767489	-0.29079699	-0.099354272	0.89348916	0.19360592
189	0.752	-0.025960299	0.016841988	-0.12003562	-0.63495601	0.083931543	0.049839007	-0.15946326	0.041798797	-0.14421951	-0.64999554	0.22943036	0.073509161	-0.14963556	0.062909193	-0.058254983	-0.61218243	0.204573	-0.0014514574	-0.22782994	0.012154004	-0.10159192	-0.68478481	0.25867474	0.017678347	-0.084751667	0.42096767	-0.17220119	-0.31042161	0.37935298	0.1119381	-0.080563644	0.40171877	-0.052051188	-0.25345087	0.35192431	-0.012969829	-0.2098202	0.79037099	-0.24066007	-0.30206167	0.77077493	0.13438485	-0.18590657	0.89767502	-0.15868593	-0.2185665	0.87380892	0.075297451	-0.40723273	0.8900978	-0.063549907	-0.27323202	1.3425303	-0.21566364	-0.29904225	1.3469859	0.11203598	-0.37450537	1.3716948	-0.062852914	-0.41869023	1.0318954	-0.23411766	-0.32551326	0.98603095	0.15946084	-0.35305023	0.79747804	-0.29160271	-0.09574632	0.89167324	0.19474249
190	0.756	-0.025816405	0.016753327	-0.12001634	-0.61983371	0.087444033	0.051834683	-0.15918539	0.041713266	-0.14412993	-0.63640104	0.23292315	0.072625661	-0.149462	0.062737254	-0.058077011	-0.59854266	0.20761307	-0.0021096232	-0.22783025	0.012200229	-0.10152749	-0.67112558	0.26171938	0.016511995	-0.080963111	0.41984172	-0.17175417	-0.29701732	0.37967604	0.11231446	-0.078123204	0.400695	-0.051639862	-0.2396166	0.35285589	-0.01304775	-0.20456891	0.7904473	-0.24128884	-0.29528609	0.77051702	0.13398177	-0.18034236	0.8976439	-0.15970178	-0.21283836	0.87412949	0.074861998	-0.40266135	0.88994521	-0.063230453	-0.26572598	1.3424654	-0.21612155	-0.29282753	1.3468285	0.11161734	-0.36784099	1.3720305	-0.063810585	-0.41357889	1.0320565	-0.23394562	-0.32096301	0.98614776	0.15921858	-0.34436489	0.7972153	-0.29227037	-0.092202505	0.88978759	0.19593845
191	0.76	-0.02568256	0.016671925	-0.12000179	-0.60447771	0.0905575	0.0537744	-0.15896573	0.041607465	-0.14405626	-0.62252665	0.23596777	0.071724722	-0.14928392	0.062589627	-0.05791699	-0.58461369	0.21030371	-0.0028390455	-0.22782967	0.012250835	-0.1014773	-0.65722847	0.26436404	0.015282042	-0.077354745	0.41875136	-0.17140859	-0.28355523	0.38032918	0.11253636	-0.075546941	0.39977169	-0.051213167	-0.22587437	0.35400798	-0.013156373	-0.1993667	0.79049487	-0.24182915	-0.28876133	0.7703712	0.13370194	-0.1747978	0.89758626	-0.16068066	-0.20720345	0.87450138	0.07452394	-0.39775149	0.89006604	-0.063214945	-0.25822197	1.3424489	-0.21651701	-0.28664209	1.3466987	0.11127556	-0.36120683	1.3724506	-0.064669333	-0.40825451	1.0323072	-0.23364639	-0.31640992	0.98628667	0.15904532	-0.33561779	0.79696759	-0.29286598	-0.088746771	0.88784225	0.19718282
192	0.764	-0.025565729	0.016603809	-0.1199937	-0.58896883	0.093354945	0.055599843	-0.15881132	0.041493694	-0.144006	-0.60845689	0.23868853	0.070782152	-0.14911187	0.062460258	-0.057781434	-0.57047827	0.21268047	-0.0036290004	-0.22782583	0.012308518	-0.10143859	-0.64328402	0.26652281	0.013937674	-0.073948877	0.41773654	-0.17117465	-0.26999352	0.38126654	0.11259946	-0.072996728	0.39891568	-0.050849652	-0.21221642	0.3553557	-0.013286074	-0.19421066	0.79050682	-0.24227374	-0.28247392	0.77032344	0.13351046	-0.16929383	0.8975203	-0.16162144	-0.20166548	0.87491175	0.074288399	-0.39260823	0.89037797	-0.063411947	-0.25073228	1.3424895	-0.21684443	-0.28050046	1.3466099	0.11100115	-0.35457611	1.3729469	-0.065466397	-0.40221484	1.0326088	-0.23343015	-0.31182476	0.98640677	0.15891792	-0.32679794	0.79679872	-0.2934394	-0.085409448	0.885857	0.19847765
193	0.768	-0.025470179	0.016552366	-0.11999365	-0.57329865	0.095948715	0.057280604	-0.15869442	0.041387149	-0.1439845	-0.59427436	0.24114413	0.069784678	-0.1489529	0.062348152	-0.057673683	-0.55620561	0.21472026	-0.0044488767	-0.22781989	0.012371393	-0.10140925	-0.62944661	0.26814407	0.012474795	-0.070736781	0.41681526	-0.17104869	-0.25629246	0.38243262	0.11252594	-0.070638104	0.39808697	-0.050623351	-0.19860132	0.35689667	-0.013408303	-0.18909814	0.79048249	-0.24262074	-0.27622259	0.77031247	0.13327389	-0.16384629	0.89745806	-0.16251758	-0.19621392	0.8753396	0.074150881	-0.38737948	0.890761	-0.063688137	-0.2432597	1.342595	-0.2170993	-0.27440289	1.3465778	0.11078732	-0.34792722	1.3735173	-0.066183387	-0.39552675	1.0329329	-0.23353015	-0.30720286	0.98652893	0.15886851	-0.31787819	0.79674837	-0.29404486	-0.082224943	0.88385725	0.19984473
